<svg width="1536" height="1820" viewBox="0 5 200 200" xmlns="http://www.w3.org/2000/svg" xmlns:xlink="http://www.w3.org/1999/xlink" xmlns:dc="http://purl.org/dc/elements/1.1/" xmlns:rdf="http://www.w3.org/1999/02/22-rdf-syntax-ns#"><defs><clipPath id="shield_627431114"><path d="M 25,33.9 C 33.4,50.3 36.2,72.9 36.2,81.7 36.2,109.9 25,122.6 25,141 c 0,29.4 24.9,44.1 40.2,47.7 15.3,3.7 29.3,0 34.8,11.3 5.5,-11.3 19.6,-7.6 34.8,-11.3 C 150.1,185 175,170.3 175,141 c 0,-18.4 -11.2,-31.1 -11.2,-59.3 0,-8.8 2.8,-31.3 11.2,-47.7 L 155.7,14.4 C 138.2,21.8 119.3,25.7 100,25.7 c -19.3,0 -38.2,-3.9 -55.7,-11.3 z"/></clipPath><clipPath id="division_627431114"><path d="m 0,115 v -5 a9 9 0 003.1-4.6c.5-2 .4-3.9-.3-5.4-.7-1.5-.8-3.4-.3-5.4.5-2 1.7-3.6 3.1-4.6-.7 1.5-.8 3.4-.3 5.4.5 2 1.7 3.6 3.1 4.6a9 9 0 013.1 4.6c.5 2 .4 3.9-.3 5.4a9 9 0 003.1-4.6c.5-2 .4-3.9-.3-5.4-.7-1.5-.8-3.4-.3-5.4.5-2 1.7-3.6 3.1-4.6-.7 1.5-.8 3.4-.3 5.4.5 2 1.7 3.6 3.1 4.6a9 9 0 013.1 4.6c.5 2 .4 3.9-.3 5.4a9 9 0 003.1-4.6c.5-2 .4-3.9-.3-5.4-.7-1.5-.8-3.4-.3-5.4.5-2 1.7-3.6 3.1-4.6-.7 1.5-.8 3.4-.3 5.4.5 2 1.7 3.6 3.1 4.6a9 9 0 013.1 4.6c.5 2 .4 3.9-.3 5.4a9 9 0 003.1-4.6c.5-2 .4-3.9-.3-5.4-.7-1.5-.8-3.4-.3-5.4.5-2 1.7-3.6 3.1-4.6-.7 1.5-.8 3.4-.3 5.4.5 2 1.7 3.6 3.1 4.6a9 9 0 013.1 4.6c.5 2 .4 3.9-.3 5.4a9 9 0 003.1-4.6c.5-2 .4-3.9-.3-5.4-.7-1.5-.8-3.4-.3-5.4.5-2 1.7-3.6 3.1-4.6-.7 1.5-.8 3.4-.3 5.4.5 2 1.7 3.6 3.1 4.6a9 9 0 013.1 4.6c.5 2 .4 3.9-.3 5.4a9 9 0 003.1-4.6c.5-2 .4-3.9-.3-5.4-.7-1.5-.8-3.4-.3-5.4.5-2 1.7-3.6 3.1-4.6-.7 1.5-.8 3.4-.3 5.4.5 2 1.7 3.6 3.1 4.6a9 9 0 013.1 4.6c.5 2 .4 3.9-.3 5.4a9 9 0 003.1-4.6c.5-2 .4-3.9-.3-5.4-.7-1.5-.8-3.4-.3-5.4.5-2 1.7-3.6 3.1-4.6-.7 1.5-.8 3.4-.3 5.4.5 2 1.7 3.6 3.1 4.6a9 9 0 013.1 4.6c.5 2 .4 3.9-.3 5.4a9 9 0 003.1-4.6c.5-2 .4-3.9-.3-5.4-.7-1.5-.8-3.4-.3-5.4.5-2 1.7-3.6 3.1-4.6-.7 1.5-.8 3.4-.3 5.4.5 2 1.7 3.6 3.1 4.6a9 9 0 013.1 4.6c.5 2 .4 3.9-.3 5.4a9 9 0 003.1-4.6c.5-2 .4-3.9-.3-5.4-.7-1.5-.8-3.4-.3-5.4.5-2 1.7-3.6 3.1-4.6-.7 1.5-.8 3.4-.3 5.4.5 2 1.7 3.6 3.1 4.6a9 9 0 013.1 4.6c.5 2 .4 3.9-.3 5.4a9 9 0 003.1-4.6c.5-2 .4-3.9-.3-5.4-.7-1.5-.8-3.4-.3-5.4.5-2 1.7-3.6 3.1-4.6-.7 1.5-.8 3.4-.3 5.4.5 2 1.7 3.6 3.1 4.6a9 9 0 013.1 4.6c.5 2 .4 3.9-.3 5.4a9 9 0 003.1-4.6c.5-2 .4-3.9-.3-5.4-.7-1.5-.8-3.4-.3-5.4.5-2 1.7-3.6 3.1-4.6-.7 1.5-.8 3.4-.3 5.4.5 2 1.7 3.6 3.1 4.6a9 9 0 013.1 4.6c.5 2 .4 3.9-.3 5.4a9 9 0 003.1-4.6c.5-2 .4-3.9-.3-5.4-.7-1.5-.8-3.4-.3-5.4.5-2 1.7-3.6 3.1-4.6-.7 1.5-.8 3.4-.3 5.4.5 2 1.7 3.6 3.1 4.6a9 9 0 013.1 4.6c.5 2 .4 3.9-.3 5.4a9 9 0 003.1-4.6c.5-2 .4-3.9-.3-5.4-.7-1.5-.8-3.4-.3-5.4.5-2 1.7-3.6 3.1-4.6-.7 1.5-.8 3.4-.3 5.4.5 2 1.7 3.6 3.1 4.6a9 9 0 013.1 4.6c.5 2 .4 3.9-.3 5.4a9 9 0 003.1-4.6c.5-2 .4-3.9-.3-5.4-.7-1.5-.8-3.4-.3-5.4.5-2 1.7-3.6 3.1-4.6-.7 1.5-.8 3.4-.3 5.4.5 2 1.7 3.6 3.1 4.6a9 9 0 013.1 4.6c.5 2 .4 3.9-.3 5.4a9 9 0 003.1-4.6c.5-2 .4-3.9-.3-5.4-.7-1.5-.8-3.4-.3-5.4.5-2 1.7-3.6 3.1-4.6-.7 1.5-.8 3.4-.3 5.4.5 2 1.7 3.6 3.1 4.6a9 9 0 013.1 4.6c.5 2 .4 3.9-.3 5.4a9 9 0 003.1-4.6c.5-2 .4-3.9-.3-5.4-.7-1.5-.8-3.4-.3-5.4.5-2 1.7-3.6 3.1-4.6-.7 1.5-.8 3.4-.3 5.4.5 2 1.7 3.6 3.1 4.6a9 9 0 013.1 4.6c.5 2 .4 3.9-.3 5.4a9 9 0 003.1-4.6c.5-2 .4-3.9-.3-5.4-.7-1.5-.8-3.4-.3-5.4.5-2 1.7-3.6 3.1-4.6-.7 1.5-.8 3.4-.3 5.4.5 2 1.7 3.6 3.1 4.6a9 9 0 013.1 4.6c.5 2 .4 3.9-.3 5.4 a9 9 0 003.1-4.6c.5-2 .4-3.9-.3-5.4-.7-1.5-.8-3.4-.3-5.4.5-2 1.7-3.6 3.1-4.6-.7 1.5-.8 3.4-.3 5.4.75 2.79 2.72 4.08 4.3 5.67 V 115 V200 H0 Z" transform="rotate(-90 100 100)"/></clipPath><style>.secondary {
      fill: var(--secondary);
    }
    .tertiary {
      fill: var(--tertiary);
    }</style><linearGradient id="luster" x1="0%" y1="100%" x2="95%" y2="10%">
            <stop stop-color="#000" stop-opacity=".3" offset="0"/>
            <stop stop-color="#ccc" stop-opacity="0" offset=".8"/>
            <stop stop-color="#fff" stop-opacity=".2" offset="1"/>
          </linearGradient><g id="banner" stroke-width="0.291" source="http://wappenwiki.org/images/6/67/Arch-Bannerbearer.svg" license="https://creativecommons.org/licenses/by-nc-sa/3.0">
    <g>
      <g>
        <g>
          <path stroke-linejoin="round" d="M79.88 69.07c-.5-1.38.19-2.6.19-2.6l-4.08-5.79.67 7.04s1.34.49 1.85 1.87l1.37-.52z"/>
          <g stroke="none" fill="#000">
            <line x1="79.138" y1="69.1787" x2="76.6063" y2="62.3596"/>
            <polygon points="79.0022,69.2272 76.6063,62.3596 79.2738,69.1205 79.0022,69.2272"/>
          </g>
        </g>
        <path stroke-linejoin="round" d="M100.96 129.65c1.76-.63 3.01-1.63 2.79-2.23-.27-.77-2.13-1.52-4.28-6.9L80.2 69.61l-.73.27-.74.26 17.56 51.5c1.77 5.52.82 7.28 1.1 8.05.22.6 1.82.58 3.57-.05z"/>
      </g>
      <path d="m78.57 69.31 1.23-.44c.23-.09.5.04.58.27.09.23-.04.5-.27.58l-1.23.45a.45.45 0 1 1-.31-.85z"/>
      <path stroke-linejoin="round" d="M97.38 129.7c-.21-.6 1.06-1.55 2.82-2.19 1.76-.63 3.34-.7 3.56-.1.21.6-1.04 1.6-2.8 2.24-1.76.63-3.36.66-3.58.05z"/>
      <path stroke-linejoin="round" d="M102.66 131.82c.06.16-.26.4-.72.57-.44.17-.85.17-.9.01l-1.17-3.24c-.06-.15.26-.4.71-.57.45-.16.86-.16.92 0l1.16 3.23z"/>
      <path stroke-linejoin="round" d="M104.67 139.95c.56-.2.08-2.47-.1-4.46-.22-2.25.25-3.25.07-3.78-.18-.49-1.48-.47-2.92.04-1.44.52-2.45 1.33-2.28 1.83.2.55 1.24 1.06 2.47 2.89 1.12 1.66 2.2 3.68 2.76 3.48z"/>
    </g>
    <path class="secondary" d="M116.37 71.28c-1.55-4.95-.57-7.1-1.49-8.7-1.12-1.93-3.03-2.19-5.07-2.46a26.1 26.1 0 0 0-7.43.37c-8.9 1.7-17.7 8.12-23.86 10.33l1.51 4.44 8.23 24.18 1.19 3.6c1.78.24 5.6-.7 8.93-1.91 5.37-1.94 8.03-3.84 12.65-6.87a9.96 9.96 0 0 1-.86 3.81c-1.01 2.1-2.8 3.24-5.08 4.06l-.5.17c-3.07 1.03-6.92 1.6-10.8 3.2l2.3 6.09c3.01-1.54 6.5-2.04 9.2-2.63 3.73-.8 8.54-2.15 12.07-4.8 3.72-2.8 6.04-5.77 6.03-12.3 0-2.6-.62-5.4-2.14-8.55a96.6 96.6 0 0 1-4.88-12.03z"/>
    <g stroke="none" fill="#000">
      <path class="secondary" d="M121.72 90.45c1.37.87 1.09 3.35.52 5.2"/>
      <path d="M121.8 90.33c.43.28.72.72.86 1.18.15.46.19.94.18 1.41-.01.48-.08.95-.17 1.4-.1.46-.22.91-.42 1.33l-.02-.01c.07-.46.17-.91.24-1.36.08-.45.11-.9.11-1.36 0-.45-.04-.9-.19-1.31-.07-.2-.16-.41-.3-.59a1.77 1.77 0 0 0-.45-.43l.16-.26z"/>
    </g>
    <path class="secondary" d="M116.36 91.1c1.35-.66 4.26-1.35 5.36-.65"/>
    <path class="secondary" d="M108.36 113.85c-3.82-.02-10.12 2.23-15.97 2.74-2 .18-2.08-.5-2.16-.73a14.52 14.52 0 0 1 3.13-2.85l-2.18-6.4c-3.1 1.35-5.5 4.14-6.06 5.6-.4 1.78.27 2.3 1.2 4.42.88 1.98.94 6.03 4.62 5.67 1.52.1 7.82-1.79 10.03-2.31 4.45-1.06 7.75-2.93 11.72-.68.22 1.29-.05 2.73-1.26 4.32-1.16 1.53-3.1 4.97-1.56 7.64 1.28-5.64 3.95-6.25 6.09-8.43.68-.66.43-2.14.15-4.57-.24-2.21-4.19-4.4-7.75-4.42z"/>
    <g stroke="none" fill="#000">
      <path d="M115 120.7c.12.14.22.3.3.45.1.16.17.33.21.52.04.18.04.37 0 .55-.06.17-.16.33-.29.45l-.02-.02c.1-.14.18-.3.2-.46a.92.92 0 0 0-.04-.49c-.05-.15-.14-.3-.24-.43-.1-.14-.2-.26-.32-.38l.2-.18z"/>
      <path d="M88.8 118.69c-.07.26-.12.53-.13.8 0 .26.02.54.1.79.08.26.2.5.38.72.17.2.39.4.62.54l-.01.03a2.3 2.3 0 0 1-.69-.5 2.4 2.4 0 0 1-.62-1.59c-.01-.29.02-.58.08-.87l.27.08z"/>
    </g>
    <path fill="none" d="M112.69 119.3c.82.38 1.66.92 2.2 1.5"/>
    <path fill="none" d="M90.22 115.86a6.9 6.9 0 0 0-1.57 2.79"/>
    <path fill="none" d="M111.02 94.26c1.27-.77 3.09-2.05 5.34-3.16"/>
  </g><g id="anvil" stroke-width=".5" source="http://wappenwiki.org/images/e/e1/Dwight_D._Eisenhower.svg" license="https://creativecommons.org/licenses/by-nc-sa/3.0">
  <path d="m 111,116 6,5 v 9 c 0,0 0,1 -1,1 h -11 v -1 c -1,-1 -5.1,-4 -10,-4 -5,0 -10,3 -11,4 0,1 -0.5,1 -0.5,1 h -10 c -0.5,0 -1,-1 -1,-1 v -9 l 5.1,-5 7.9,-3 c 1.2,-2 1,-3 1,-6 0,-11 -12,-15 -22,-16 C 63,91 62,89.4 62,87.9 v -6.2 c 0,-0.9 0.5,-1.5 1.6,-1.5 H 108 c 1,0 2,0.6 2,1.5 v 0.6 c 0,1 0,1.5 1,1.5 h 2 c 1,0 1,0 1,0.5 v 1 c 4,0 26,0 26,0.6 0,5.6 -7,13 -18,14 -10,2.1 -19,3.1 -19,10.1 0,4 4,4 8,6 z"/>
    <g fill="#000" stroke="none">
    <path d="m 107,87 c 0,-2.2 -1,-3.6 -3,-3.6 H 86 v 16.5 c -0.6,-1.6 -0.6,-3 -0.6,-4 v -13 H 104 c 3,0.1 3,2 3,4.1 z"/>
    <path d="m113 96c0-3-1-8.3 3-8.7l20-.5-20 1c-3 .2-3 5.2-3 8.2z"/>
    <path d="m105 127c-8-5-14-4-22 0 7-5 16-5 22 0z"/>
    <path d="m 79,118 c 2.8,-2 6.5,-4 7.2,-7 h 0.4 c -0.3,3 -5,6 -7.6,7 z"/>
    <path d="m 110,118 c -4,-2 -6,-4 -7,-7 h 0 c 0,3 3,6 7,7 z"/>
    </g>
  </g><style xmlns="http://www.w3.org/1999/xhtml" type="text/css"></style></defs>  <g clip-path="url(#shield_627431114)"><rect class="field" x="0" y="0" width="200" height="200" fill="#333333"/><g class="division" clip-path="url(#division_627431114)"><rect x="0" y="0" width="200" height="200" fill="#ffe066"/></g><g class="ordinary" i="0" fill="#fafafa" stroke="none" stroke-width="1"><path d="M 25,33.9 C 33.4,50.3 36.2,72.9 36.2,81.7 36.2,109.9 25,122.6 25,141 c 0,29.4 24.9,44.1 40.2,47.7 15.3,3.7 29.3,0 34.8,11.3 5.5,-11.3 19.6,-7.6 34.8,-11.3 C 150.1,185 175,170.3 175,141 c 0,-18.4 -11.2,-31.1 -11.2,-59.3 0,-8.8 2.8,-31.3 11.2,-47.7 L 155.7,14.4 C 138.2,21.8 119.3,25.7 100,25.7 c -19.3,0 -38.2,-3.9 -55.7,-11.3 z" fill="none" stroke="#fafafa" stroke-width="10" transform="translate(15 15) scale(.85)"/></g><g class="charge" i="0" charge="banner" fill="#cc7f19" stroke="#000" style="--secondary: #b63a3a; --tertiary: #cc7f19;"><use xlink:href="#banner" xmlns:xlink="http://www.w3.org/1999/xlink" transform="translate(-50 -50) scale(1.5)"/></g><g class="charge" i="1" charge="anvil" fill="#333333" transform="translate(14 1) rotate(-21 100 100)" stroke="#000" style="--secondary: #333333; --tertiary: #333333;"><use xlink:href="#anvil" xmlns:xlink="http://www.w3.org/1999/xlink" transform="translate(48 10.5) scale(0.52)"/></g></g> <path class="grad" d="M 25,33.9 C 33.4,50.3 36.2,72.9 36.2,81.7 36.2,109.9 25,122.6 25,141 c 0,29.4 24.9,44.1 40.2,47.7 15.3,3.7 29.3,0 34.8,11.3 5.5,-11.3 19.6,-7.6 34.8,-11.3 C 150.1,185 175,170.3 175,141 c 0,-18.4 -11.2,-31.1 -11.2,-59.3 0,-8.8 2.8,-31.3 11.2,-47.7 L 155.7,14.4 C 138.2,21.8 119.3,25.7 100,25.7 c -19.3,0 -38.2,-3.9 -55.7,-11.3 z" fill="url(#luster)" stroke="#333333" stroke-width="1" style="pointer-events: none;"/>  </svg>