<svg width="1280" height="1502" viewBox="0 10 200 200" xmlns="http://www.w3.org/2000/svg" xmlns:xlink="http://www.w3.org/1999/xlink" xmlns:dc="http://purl.org/dc/elements/1.1/" xmlns:rdf="http://www.w3.org/1999/02/22-rdf-syntax-ns#"><defs><clipPath id="shield_5360743"><path d="m 100,25 c 18,0 50,2 75,14 v 37 l -2.7,3.2 c -4.9,5.4 -6.6,9.6 -6.7,16.2 0,6.5 2,11.6 6.9,17.2 l 2.8,3.1 v 10.2 c 0,17.7 -2.2,27.7 -7.8,35.9 -5,7.3 -11.7,11.3 -32.3,19.4 -12.6,5 -20.2,8.8 -28.6,14.5 C 103.3,198 100,200 100,200 c 0,0 -2.8,-2.3 -6.4,-4.7 C 85.6,189.8 78,186 65,180.9 32.4,168.1 26.9,160.9 25.8,129.3 L 25,116 l 3.3,-3.3 c 4.8,-5.2 7,-10.7 7,-17.3 0,-6.8 -1.8,-11.1 -6.5,-16.1 L 25,76 V 39 C 50,27 82,25 100,25 Z"/></clipPath><style>.secondary {
      fill: var(--secondary);
    }
    .tertiary {
      fill: var(--tertiary);
    }</style><linearGradient id="luster" x1="0%" y1="100%" x2="95%" y2="10%">
            <stop stop-color="#000" stop-opacity=".3" offset="0"/>
            <stop stop-color="#ccc" stop-opacity="0" offset=".8"/>
            <stop stop-color="#fff" stop-opacity=".2" offset="1"/>
          </linearGradient><g id="arrowsSheaf" stroke-width="0.33" source="http://wappenwiki.org/images/6/66/Luk.svg" license="https://creativecommons.org/licenses/by-nc-sa/3.0">
    <g transform="rotate(-45.0 95.7055 101.4695)">
      <path class="tertiary" d="M 100.814 66.47a 6.6 -6.6 0 0 1 2.453 -0.671c 1.056 0.0 2.222 1.056 2.222 2.288 0.0 3.399 -4.675 12.254 -4.675 12.254zm -1.65 0.0s -1.331 -0.671 -2.453 -0.671c -1.056 0.0 -2.222 1.056 -2.222 2.288 0.0 3.399 4.675 12.254 4.675 12.254z"/>
      <path d="M 99.164 134.714v -70.785s 0.363 -0.132 0.825 -0.132 0.825 0.209 0.825 0.209v 70.785z"/>
      <ellipse cx="99.989" cy="135.077" rx="1.65" ry="0.913"/>
      <path class="secondary" d="M 101.023 135.11l -0.385 5.819 2.398 -4.895H 106.6l -6.6 7.909 -6.6 -7.909h 3.564l 2.398 4.895 -0.385 -5.819s 0.308 -0.286 1.034 -0.286c 0.704 0.0 1.012 0.286 1.012 0.286z"/>
      <path fill="#000" stroke="none" d="M 100.968 77.096l 2.035 -4.444 -2.332 4.301zm -0.011 -3.652l 2.024 -3.322 -2.299 3.135zm -0.011 -3.157l 2.112 -3.212 -2.376 3.014zm -1.628 6.666l -2.343 -4.301 2.046 4.444zm -0.011 -3.696l -2.299 -3.135 2.024 3.322zm 0.0 -3.168l -2.376 -3.014 2.101 3.212z"/>
    </g>
    <g transform="rotate(45.0 104.7289 101.481)">
      <path class="tertiary" d="M 100.814 66.47a 6.6 -6.6 0 0 1 2.453 -0.671c 1.056 0.0 2.222 1.056 2.222 2.288 0.0 3.399 -4.675 12.254 -4.675 12.254zm -1.65 0.0s -1.331 -0.671 -2.453 -0.671c -1.056 0.0 -2.222 1.056 -2.222 2.288 0.0 3.399 4.675 12.254 4.675 12.254z"/>
      <path d="M 99.164 134.714v -70.785s 0.363 -0.132 0.825 -0.132 0.825 0.209 0.825 0.209v 70.785z"/>
      <ellipse cx="99.989" cy="135.077" rx="1.65" ry="0.913"/>
      <path class="secondary" d="M 101.023 135.11l -0.385 5.819 2.398 -4.895H 106.6l -6.6 7.909 -6.6 -7.909h 3.564l 2.398 4.895 -0.385 -5.819s 0.308 -0.286 1.034 -0.286c 0.704 0.0 1.012 0.286 1.012 0.286z"/>
      <path fill="#000" stroke="none" d="M 100.968 77.096l 2.035 -4.444 -2.332 4.301zm -0.011 -3.652l 2.024 -3.322 -2.299 3.135zm -0.011 -3.157l 2.112 -3.212 -2.376 3.014zm -1.628 6.666l -2.343 -4.301 2.046 4.444zm -0.011 -3.696l -2.299 -3.135 2.024 3.322zm 0.0 -3.168l -2.376 -3.014 2.101 3.212z"/>
    </g>
    <g transform="translate(0 -3.73)">
      <path class="tertiary" d="M 100.814 66.47a 6.6 -6.6 0 0 1 2.453 -0.671c 1.056 0.0 2.222 1.056 2.222 2.288 0.0 3.399 -4.675 12.254 -4.675 12.254zm -1.65 0.0s -1.331 -0.671 -2.453 -0.671c -1.056 0.0 -2.222 1.056 -2.222 2.288 0.0 3.399 4.675 12.254 4.675 12.254z"/>
      <path d="M 99.164 134.714v -70.785s 0.363 -0.132 0.825 -0.132 0.825 0.209 0.825 0.209v 70.785z"/>
      <ellipse cx="99.989" cy="135.077" rx="1.65" ry="0.913"/>
      <path class="secondary" d="M 101.023 135.11l -0.385 5.819 2.398 -4.895H 106.6l -6.6 7.909 -6.6 -7.909h 3.564l 2.398 4.895 -0.385 -5.819s 0.308 -0.286 1.034 -0.286c 0.704 0.0 1.012 0.286 1.012 0.286z"/>
      <path fill="#000" stroke="none" d="M 100.968 77.096l 2.035 -4.444 -2.332 4.301zm -0.011 -3.652l 2.024 -3.322 -2.299 3.135zm -0.011 -3.157l 2.112 -3.212 -2.376 3.014zm -1.628 6.666l -2.343 -4.301 2.046 4.444zm -0.011 -3.696l -2.299 -3.135 2.024 3.322zm 0.0 -3.168l -2.376 -3.014 2.101 3.212z"/>
    </g>
    <rect width="5.06" height="2.64" x="97.58" y="98.26"/>
  </g><g id="scale" stroke-width=".4" source="https://commons.wikimedia.org/wiki/File:Imbalanced_justice_scale_silhouette.svg" license="https://creativecommons.org/publicdomain/zero/1.0">
    <path d="M99.69 72.49c-1.92-1.12-5.95-1.58-7.65-1.58-2.26 0-3.44.26-6.16 1.77-2.26 1.25-2.89 1.79-4.46 1.44-1.58-.34-2.34-1.15-3.16-1.43-.82-.27-2.06.62-2.13.88-.09.29-.36-.07-.43-.28-.07-.2-1.62.68-1.55 1.23.07.54 1.4 2.05 1.6 1.4.19-.62.45-.67.7-.43.23.24 1.13.73 1.27 1.7.13.95-.35 1.23-.7.95-.34-.27-.47-.4-.54-.68-.07-.27-1.5.42-1.3.62.2.2.61 1.5 1.1 1.64.47.14.48.76.48 1.03 0 .28.82.22.82.15l.06-.97s1.59-.14 1.52-2.13c-.07-1.99-1.17-2.6-.7-2.74.49-.14 2.89 1.1 4.95 1.16 2.06.07 4.84-1.99 8.55-1.99 2.75 0 5.52 1.29 6.53 1.95l3.16.73c1.01-.66 3.3-2.68 6.05-2.68 3.7 0 6.5 2.05 8.55 1.98 2.06-.07 4.46-1.3 4.94-1.16.48.13-.62.75-.7 2.74-.06 1.99 1.53 2.12 1.53 2.12l.06.97c0 .07.82.13.82-.14 0-.28 0-.9.49-1.03.48-.14.88-1.44 1.09-1.64.2-.2-1.23-.9-1.3-.62-.07.27-.2.4-.55.68-.34.27-.83 0-.69-.96s1.03-1.46 1.28-1.7c.24-.24.49-.18.67.44.2.64 1.55-.86 1.62-1.41.07-.55-1.49-1.43-1.56-1.23-.06.21-.33.58-.42.28-.08-.26-1.31-1.14-2.14-.87-.82.28-1.57 1.09-3.15 1.43-1.58.35-2.2-.19-4.47-1.44-2.71-1.5-3.9-1.77-6.17-1.77-1.7 0-2.8.4-4.7 1.52z"/>
    <g class="secondary" stroke-width=".32">
      <g>
        <path d="M63.77 114.36c8.3 4.65 18.79 4.4 27 0 .68-.4-8.97-1.47-13.54-1.47-8.16 0-13.6.81-13.46 1.47zm13.64-35.23a6.3 6.3 0 0 1 0 1.54s.97 0 .97.21c0 .23-.12 4.28.23 4.68.35.4.57.32.74.1.16-.2.64-.18.7-.07.05.1.17.77-.18 1-.48.3-1.68.3-1.78-.87-.11-1.16-.1-2.15-.56-2.15-.16 0-.15.55-.15 1.17 0 .62.05.78.16.92.1.13.08 1.43 0 1.43h-.81c-.08 0-.1-1.3 0-1.43.1-.14.16-.3.16-.92 0-.62.08-1.17-.08-1.17-.5 0-.43.89-.54 2.05-.1 1.16-1.22 1.2-1.76 1-.54-.19-.28-.97-.23-1.08.07-.16.39-.02.59.1.23.14.46.3.81-.1.35-.41.38-4.43.38-4.66 0-.22.89-.2.89-.2.02-.52.1-1.04 0-1.55.23.12.35.07.46 0zm-.25 1.86c-.26 0-.47.05-.47.1v.73c0 .06.21.1.47.1s.47-.04.47-.1v-.73c0-.05-.21-.1-.47-.1z"/>
        <path d="M77 87.04c.5-.47.21-.13.24.3l-.1 30.18M75.3 85.8c.06.02.08.19.03.37-.04.17-.14.37-.24.67-3.21 9.67-6.73 19.23-10.1 28.84M78.87 85.8c-.07.02-.08.19-.03.37.04.17.14.37.24.67 3.21 9.67 6.73 19.23 10.1 28.84"/>
        <path d="M63.77 114.44c9.05 4 18.79 3.2 27 0-.18.93-4.82 6.66-13.86 6.66-8.92 0-13.14-6.01-13.14-6.66z"/>
      </g>
      <g>
        <path d="M122.22 79.16a6.3 6.3 0 0 0 0 1.54s-.98 0-.98.21c0 .23.13 4.28-.22 4.68-.36.4-.58.32-.74.1-.16-.2-.64-.18-.7-.07-.05.1-.17.77.18 1 .48.3 1.67.3 1.78-.86.1-1.17.1-2.16.55-2.16.17 0 .16.55.16 1.17 0 .62-.06.78-.17.92-.1.13-.08 1.43 0 1.43h.82c.08 0 .1-1.3 0-1.43-.11-.14-.17-.3-.17-.92 0-.62-.07-1.17.09-1.17.49 0 .43.89.53 2.05.11 1.16 1.23 1.2 1.77 1 .54-.19.28-.97.23-1.08-.07-.16-.4-.02-.6.1-.22.14-.45.3-.8-.1-.35-.41-.39-4.43-.39-4.66 0-.22-.88-.2-.88-.2-.03-.52-.1-1.04 0-1.55-.24.13-.35.07-.46 0zm.25 1.86c.26 0 .46.05.46.1v.73c0 .06-.2.1-.46.1s-.47-.04-.47-.1v-.73c0-.05.2-.1.47-.1zm-13.28 33.37c8.28 4.65 18.78 4.4 27 0 .68-.4-8.98-1.47-13.55-1.47-8.16 0-13.6.81-13.45 1.47z"/>
        <path d="M122.57 86.93c-.42.26-.12-.23-.15.19l.07 30.43m-1.77-31.72c.07.02.08.19.03.37-.04.18-.14.37-.24.67-3.21 9.67-6.73 19.23-10.1 28.84m13.88-29.88c-.06.02-.08.19-.03.37.04.18.14.37.24.67 3.21 9.67 6.73 19.23 10.11 28.84"/>
        <path d="M109.19 114.47c9.04 4 18.78 3.2 27 0-.19.93-4.83 6.66-13.87 6.66-8.92 0-13.13-6.01-13.13-6.66z"/>
      </g>
    </g>
    <g>
      <path d="M84.97 134.46s-.1-1.62 2.38-1.66c2.47-.03 24.08 0 25.7 0 1.61 0 2.01 1.1 2 1.67-.04 1.38-11.15 4.25-11.16 4.19l-14.73-1.18c-1.4-1-3.38-.99-4.2-3.02z"/>
      <path d="M84.98 134.27v3.15c-.1 3.33 30.07 3.5 30.06 0v-3.15c.03 3.5-30.12 3.51-30.06 0z"/>
      <path d="M86.94 132.1c.04-.57 4.07-2.06 12.66-2.06 8.63 0 13.48 1.19 13.48 2.1 0 .23-2.66 2.04-2.66 2.04l-11.1 1.07-12.21-1.99z"/>
      <path d="M86.94 132.02v2.29c.05 2.1 26.14 2.4 26.13 0v-2.29c0 2.27-26.1 2.24-26.13 0z"/>
      <path d="M105.87 132.25s-3.68-.38-4.56-.97c-.87-.58-.68-.63-1.57-.63-.9 0-.7.05-1.58.63-.88.59-4.56.97-4.56.97"/>
      <path d="M96.84 128.8h6.34c.05.26-2.02 2.08-2.7 2.04h-1.3c-.76.02-2.35-1.94-2.34-2.04zm1.83-61.44v-1.39c.96-.42 1.71-.93 2.68 0v1.26z"/>
      <path d="m99.92 67.03-.32.02c-.12 0-.23.03-.34.05-.66.11-1.12.38-1.12.72v6.12c0 .33.46.6 1.12.72l.34.05.32.01h.13l.4-.01c.82-.07 1.43-.39 1.43-.77v-6.12c0-.38-.61-.7-1.42-.77h-.04l-.32-.01zm-1.53 60.65V77.1l3.24-.02-.02 50.93-3.22-.34z"/>
      <path d="M96.84 128.8h6.34c.05-.25-2.02-2.08-2.7-2.04h-1.3c-.76-.02-2.35 1.94-2.34 2.04zm1.47-51.77h3.32s-.54-.91-1.67-.91-1.65.87-1.65.91zm0-1.8h3.4s-.62-.97-1.75-.97-1.65.93-1.65.97z"/>
      <path d="M98.3 73.38h3.4s-.6.92-1.74.92a1.87 1.87 0 0 1-1.65-.92zm.78-9.46v1.03l-.08.03h-.02c-.4.07-.96.21-1.14.42-.07.08-.06.13 0 .2.1.14 1.04.58 2.1.58h.13c1.05 0 1.99-.44 2.1-.58.09-.11.06-.13 0-.2a2.99 2.99 0 0 0-1.14-.42h-.01l-.09-.03v-1.03z"/>
      <path d="M102.25 62.3a2.25 2.25 0 0 1-2.24 2.23 2.25 2.25 0 0 1-2.24-2.24 2.25 2.25 0 0 1 2.24-2.24 2.25 2.25 0 0 1 2.24 2.24z"/>
      <path d="M102.56 71.73c0-.7-.57-1.28-1.28-1.28h-2.55c-.7 0-1.27.58-1.27 1.28v5.06c0 .7.57 1.28 1.27 1.28h2.55c.7 0 1.28-.57 1.28-1.28z"/>
    </g>
  </g><g id="cock" stroke-width=".4" source="http://wappenwiki.org" license="https://creativecommons.org/licenses/by-nc-sa/3.0">
    <path d="M116 112.6c1.3.8 2.1 2.2 2.4 3.7.2 1.5-.1 3-.5 4.5 1.2-.1 2.3-1 3-2.2.5-1.1.6-2.5.4-3.7-.2-1.3-.7-2.5-1.2-3.7"/>
    <path d="M121.2 110a9 9 0 013.2 3.1c.8 1.3 1.1 3 .7 4.4-.3 1-1 2-2 2.7.3-1.6.1-3.4-.8-4.8-.4-.7-1-1.1-1.4-1.8-.5-.7-.7-1.7-1.2-2.4"/>
    <path d="M121.6 109a8 8 0 013.4 1c1 .8 1.9 1.8 2.1 3 .2 1 0 2-.5 2.7a5 5 0 00-2.2-3.2c-.6-.4-1.2-.4-1.7-.7l-1.7-1.4"/>
    <path class="secondary" d="M81.5 124.3s-.4-1-1.3-.8c-.9.3-.8.9-.8.9v.6c0 .9-.6 1-1.2 1l-.4-.1c-.2 0 .5 1.2 2.1.8 1.8-.5 1.6-2.4 1.6-2.4zm-9.7-4s1 .5.7 1.4c-.4.8-1 .7-1 .7H71c-.8 0-1 .5-1 1.1l.1.5c0 .2-1.2-.6-.7-2.2.5-1.8 2.5-1.5 2.5-1.5zm-.8-4.9s.9.8.2 1.5-1.1.4-1.1.4l-.6-.3c-.8-.3-1.2.1-1.3.7l-.1.4c-.1.2-.9-1 .2-2.3 1-1.4 2.7-.4 2.7-.4zm3.7-2.7s0 1.2-1 1.2c-.8 0-1-.4-1-.4l-.1-.6c-.4-.8-1.1-.8-1.6-.5-.2.1-.2.3-.4.3s0-1.3 1.8-1.6c1.8-.3 2.3 1.6 2.3 1.6z"/>
    <path class="secondary" d="M92.8 115.1c-.3.6-3 2.4-4.1 2.7-3.4 1-5.7.4-8.8.2-.6 0-1.1-.4-1.7-.7-.9-.7-1-1.6-1.5-2.3-.1-.3-.5-.5-.6-.5-.7-.2-.9-1-.8-1.2.4-.6.2-1-.2-1.4-.5-.4-1-.2-1-.2s.5.5-.5 1.2l-.4.2-.5.1c-.2.2-.3.6.1 1 .3.3.7.3 1 .2 0 .5.3.9.8 1.1l.4.3v.5c0 .3.6.6.7.8-.4-.2-1-.3-1.5-.7-.3-.3-.6-.6-1-.7h-1l-.1-.5-.3-.4c-.4-.3-1.5-.5-1.8.2v.1c.5.2.6 1.3-.1 2-.1 0-.2.3-.1.4 0 .3.5.7 1 .8.6 0 .8-.4.9-.5h1.2c.6 0 1 .5 1.4.9.5.4 1 .5 1.6.6-1.2.6-1.2 0-2 .2l-.7.3-.4.3s0-.5-.7-.7c-.7-.3-1.5.2-1.6.7v.3c.9 0 1.4 1.5 1 2-.1.1 0 .5.7.6.3 0 .7 0 1-.5.3-.3 0-.3.3-.7.3-.3 1-.1 1.4-.1.8 0 1.2-.8 1.7-.9.5-.1.5-.1.8.2.3.4.8.2 1 .3.5 0 1 .4.8.7-.4.6.2.9.1 1-.2.2-.8.4-.7 1.2.2.7.7.6.7.6s.9-1 2.1 0c.2.1.7-.2.5-1.1-.1-.6-.7-.6-.7-.6s0-.6-.4-1c-.3-.3 0-.3 0-.7 0-.3-.5-1-.5-1a11 11 0 014.4.7s0 1.8.8 3c1 1.4 2.3 1.7 3.5 1.6a5 5 0 01-2.3-3.8c0-1 2.2-1.7 3.2-1.8 2.6-.5 3.5-.3 5.7-.5"/>
    <path d="M94.5 106.8c-1 1.6-1.2 3.7-2.2 5.2-.4.8-1 1.4-1.3 2.2-.3.8-.5 1.5-.6 2.3.6 0 1.4.2 1.8.7.2.3.3.8.6 1l.6.4c.3.3.3.8.2 1.3h1.1l1.8-.6c1-.2 2.7-1.3 4.2-2.4m17.9-12.4c1.6-.5 3.2-.8 4.8-1 2.9-.4 5.1.2 6.8-1.8.4 1-.4 2.3-1.1 3a14.9 14.9 0 01-6.5 3.4c-3.5 1-7.2 2-10.8 1.8"/>
    <path d="M110 105.5c4.5-.5 9.8-4.1 13-6.2 1.4-1 2.8-1.7 4.3-2.5 1.4-.7 3-1 4.4-1.6 1.1-.5 2.5-1.2 3-1.7a4 4 0 01-.5 1.8 36 36 0 01-16 11.3c-2.4.7-6.5 1.5-8.4 1.6"/>
    <path d="M112.4 104.8c4.8-2 9.5-8 12.4-11.5 1.2-1.5 2.5-2.9 4-4.2 1.3-1.3 2.9-2.3 4.4-3.4 1-.9 2.1-2 2.7-3 .3.7.2 1.5 0 2.2-.7 3.4-2.7 6.6-4.8 9.2a41.1 41.1 0 01-18 13.8"/>
    <path d="M111 104.4c5-3.6 9-11.6 11.4-16.2 2.8-5.6 8-9.4 10.8-13.9.1 5-1.2 8.7-3.4 13.2-2.2 4.6-4.7 9-8.1 12.6a64 64 0 01-9.1 7.6"/>
    <path d="M112 103.5c4-4.8 5.9-13.7 7-19 1.3-6 3.9-10.4 6.6-16 1.4 4.8 1.4 8.5.5 13.5-1 5-2.3 10-4.7 14.6a62.7 62.7 0 01-7 9.8"/>
    <path d="M111 99.4c2.5-4.7 2-11.5 2.2-16.8.3-6.3 2-11 4-17 2.6 4.5 3.5 8.1 3.4 13.3s-1.1 10.1-2.4 15a27 27 0 01-5.8 11"/>
    <path class="tertiary" d="M87.6 72.4a8 8 0 004-1.4 6.1 6.1 0 002.1-3.6c.2-1.1 0-3.7-1.2-4.7-.2 1.2-1.3 3-2.5 3.5-1.3.5-1.8.1-1.8.2l.8-1.1c.4-.4.8-.7 1-1.1.2-.5.2-1.5-.2-2-1.6 1-2.6.6-3.8 1-1.1.4-1.5 1.3-2.1 2.2-.6-.6-.5-1.3-.4-2 0-.6 0-1.2-.4-1.5-.7 1-1.8 1-2.6 1.6-.8.7-1 1.5-1.3 2.5-1.3-.1-1.8-1.3-2.3-1.8-.2-.2-.4-.4-.8-.4v1.4l-.3 1.5c0 .7.3 1.6.3 1.6-1 0-1.8-.2-2.7-.7H73c0 .8.2 1.6.8 2.2 1 1.1 2 1.4 4.7 1.4"/>
    <path d="M93 92c0-1.6.8-3.6 1-5.9.2-2.9-1-6.2-2.2-8.9-1-2-1.6-3.9-2-4.8-.1-.2-.7-1.3-1.6-2-1.4-1.1-2.5-1.8-4.3-1.8-1 0-2.5 0-3.6.5-1 .5-2.2 1.8-2.2 2.3-.5.5-.7 1.8-.5 2.5.2.7.7 1.3 1.3 1.8l1.7 1.3c.4.4.9.9 1 1.4v1.1l-.1 1.1c-.1.8-.5 1.6-.2 2.3l-.8-.3c-1.3 2.5.3 1.3-1.7 3.3 0 0-1.2 2-2.5 3.1-1.8 2-7.3 5.1-6.6 11.5a9.7 9.7 0 002.6 5.7c2.7 5 6.3 4.6 8.4 5.5 4 3 10 2.4 13.7 2.4 2.1 0 3.7 1 5.8.6l10.6-.6c1.1-.2 3.1-.3 4.1-.7 1.4-.5 1.6-.7 2.2-.8 2.3-.1 5-1.8 5-1.8l2.6-.1c1.4-.2 2-.4 2-.5.3-.7-.8-1.8-1.5-1.8 0-.6-.4-1-.9-1.5s-1-.6-1.6-.6c.2-.7-.4-1.5-.8-1.9-.5-.5-1.5-.6-1.5-.6-.2-1.7-3.4-2.9-5.6-3.6l-5-2c-.5-.2-1.7-.6-2-1a37 37 0 00-9-4.2c-2.8-.7-4-1-5.8-1z"/>
    <path class="tertiary" d="M81.4 79.5c.2 2.4-3.6 2.6-4.3 2.7a3 3 0 00-2.2 1.6c-.4.9-.3 2.1.5 2.7 2.1 1.4 4-.8 5.3-2 .8-.9 1.4-3.5 1.7-4.4"/>
    <path class="tertiary" d="M81.7 80.5c0 1.2-1 1.4-2 2.6-.5.4-1.3 1.7-1.3 2.7 0 .5 0 1.1.3 1.7.3.8.8 1.3 2 1.5.6.2 1.3.2 2 0 1.8-.3 2.8-2.2 2.6-4-.1-1-.4-2-1.1-3-.7-1-1.4-1.5-1.7-2.9"/>
    <path fill="#fff" d="M83.4 72.2c.6 0 .7.4.7.8 0 1-.5 1.8-1.5 2-1 0-1.7-.8-2-1.9 0-.3 0-.8.4-.9 1.1-.4 1.8-.2 2.4 0z"/>
    <path class="secondary" d="M81.7 80.5c.7.3.9-.8.8-1.4 0-.3-.3-1-.6-1.3 0 0 0 0 0 0-.2-.2-.2-.3-.2-.5 0-.5-.5-1-1-1.3-.2 0-.2-.1-.3-.3l-.2-.4c0-.3-.3-.7-.6-1-.3-.1-.7-.2-.8-.5l-.1-.4c0-.3-.2-.5-.4-.7a.8.8 0 01-.3-.5l.1-.8-1.5.1c-.6.1-1.4.4-1.8.8l-.2.2-.5.2C73 73.1 71 74.4 71 76c.2-.2 1-.3 1.6-.5.6-.2 1.6-.2 2.3-.2 1 .1 1.5.4 2.5.6.6 0 1.2.4 1.8.6 1 .5 1.4.9 1.9 1.6v.4c-1-.3-2-1-4.2-1s-3.5.4-4.5.7c0 .1 0 .2.2.3h1.1c1.6-.1 3.7.2 5.2.7.7.4 2.1.9 2.9 1.4zm25.6 52.8s-1-.3-1.4.6c-.3.9.2 1.1.2 1.1l.6.4c.7.5.4 1.1 0 1.5l-.3.3c-.1.2 1.3.3 2-1.3.6-1.6-1-2.6-1-2.6zm-12.1 4.4s1.2-.1 1.3.8c.1 1-.4 1-.4 1l-.6.3c-.7.5-.6 1-.4 1.5l.4.4c0 .2-1.4 0-1.7-1.6-.4-1.8 1.4-2.4 1.4-2.4zm-2.3-4.3s1.1.3.9 1.2c-.2.9-.8.9-.8.9h-.6c-.9 0-1 .7-.9 1.2 0 .3.2.4.2.5 0 .2-1.3-.4-1-2 .2-2 2.2-1.8 2.2-1.8zm1.9-4.2s.6 1-.2 1.5-1.1.1-1.1.1l-.5-.5c-.7-.4-1.3-.1-1.6.4l-.2.4c-.1.1-.6-1.2.7-2.2 1.5-1 2.9.3 2.9.3z"/>
    <path class="secondary" d="M102.1 118.7c.5.4 1.2 3.6 1 4.7-.2 3.5-.4 5.2-2 7.7-.3.3-.4.4-1 .4-1.1-.2-1.6-1-2.4-1.3l-.8-.1c-.8.1-1.3-.5-1.3-.8 0-.6-.4-.8-1-1-.5-.1-.8.3-.8.3s.6.2.1 1.2l-.2.4-.4.5c-.2.2 0 .6.6.7.4.1.7-.1.9-.2.4.3.8.5 1.3.5l.5.1.3.4c.2.2.8.3 1 .3-.5 0-1 .3-1.7.2l-1.1-.2c-.5.2-.7.3-1 .6a1 1 0 00-.3-.4l-.5-.2c-.5-.1-1.5.3-1.4 1 0 0 0 0 0 0 .5 0 1.2.9.9 1.9l.1.5c.2.2.8.3 1.3 0 .5-.2.4-.6.5-.8.3 0 .7-.5 1-.6.5-.2 1.2 0 1.7.1.7.2 1.1 0 1.7-.3-.4.5-.8 1-1.4 1-.4 0-.7.3-1 .6l-.3.6-.3.4s-.3-.3-1-.2c-.7.1-1.1.9-1 1.4l.2.2c.7-.4 1.8.7 1.7 1.3 0 .1.4.5 1 .2.3-.1.6-.4.6-.9v-.7c0-.5.8-.7 1-.8.4-.2.7-.5.9-.8.3-.4.3-.7.7-1 .3-.4.9-.3 1.5-.3.7-.2.5-.8 1-1.2 0 0 .7-.7 1-.2.3.6 1.3.3 1.3.4.1.3-.1 1 .6 1.3.6.3 1-.2 1-.2s-.4-1.3 1.2-1.7c.1-.1.2-.8-.7-1-.5-.3-.9.2-.9.2s-.4-.5-1-.3c-.4 0-.3-.2-.6-.3-.2-.2-1-.2-1-.4.2-1.3 1-2.4 1.2-3.7.8.4 2 .7 3.2.4a3.6 3.6 0 002.7-2.7 5 5 0 01-4.3.8c-1-.3-1-2.3-.8-3.3.4-2.6 1.2-3.7 1.7-5.8"/>
    <path d="M95.6 113.2c1 1.5 2.8 2.6 3.7 4.2.5.8.9 1.5 1.5 2.2.5.6 1.1 1 1.7 1.5.4-.5.8-1.1 1.4-1.2l1.2-.1.6-.4c.4-.1.9.1 1.2.4l.5-1 .3-1.8a8 8 0 000-3.5"/>
    <g fill="#000" stroke="none">
      <path d="M75.5 117.3c-.4-.2-.9 0-1.3.1-.4.4-.3-.2-.3-.4s.4 0 .6-.1c.3 0 .6.2 1 .4zm2.5 4.1c.3-.3 1-.7 1.3-.5 0 .2.1.6-.1.5h-1.3.1zm-8.2-7l.1-.8c.1.1.6.1.4.3l-.4.5zm4.2.6l.7.6c.3 0 .6 0 .8.3.4.3.3.1-.1 0-.6.1-1.2.1-1.5-.3-.3-.1-.3-.3-.1-.4 0 0 .2-.4.2-.2zm-.4-3.6c-.3.3-1 .7-1.2.5.5 0 .5-1 1-.7l.2.2zm4.4 7.1c.2-.3.2-.6.5-.8.3-.3.1.1.1.3 0 .2 0 .5-.2.4l-.4.1zm-6.9-.5l-.1 1.2c-.2-.2-.2-.8-.5-1l.6-.3v.1zm11.5.9c0-.5.6-.7 1-1 .2 0 .4-.2 0 0-.4.3-.3 1-.6 1h-.4zM90 114l.7-1.6h.8c-.4.4-.6 1-1 1.5-.2 0-.3.2-.5.1zm2.6 2.5c.1-.3.5-.4.8-.5.4-.2 1 0 1.4-.1 0 0 .3 0 .1.1-.3.3-.7.3-1 .5h-1.3zm36.8-29.1c-.8 1.3-1.8 2.5-2.7 3.8a67.9 67.9 0 01-8.6 9.8l-.3-.4c3.5-3.2 6.7-6.7 9.5-10.5.7-.9 1.3-1.9 2.1-2.7zm-3.2-4.6c-1 2.2-3.8 6-5 8v-.5c1.2-2 3.7-5.4 5-7.5zm-4.2-5a74.4 74.4 0 01-7.2 21.2l-.5-.2c4.2-6.7 5.6-13.5 7.6-21zM76.4 67a6 6 0 012.4-1.4c1.7-.7 3.7-.7 5.4 0 .9.4 1.5 1 2.5 1v.1c-.5 0-1 0-1.4-.3l-1.2-.5c-.9-.3-1.7-.4-2.6-.4-1.3 0-2.6.3-3.8.8l-1.3.6zm38.8 8c-.3 2.1-.4 4.2-.4 6.4 0 2.1 0 4.3-.2 6.4-.3 3.5-1.4 6.9-3.2 10l-.4-.4c1.8-3 2.9-6.2 3.3-9.7.2-2.1.2-4.3.3-6.4 0-2 .2-4.2.6-6.3z" transform="translate(2 2)"/>
      <path fill="none" stroke="#000" d="M86 104.6c1 2.8 3.6 4.2 7 5 4.6.8 9.4-.6 10-.4 2.2.6 5.7.6 7.8 1.1 5.3 1.2 8.4.8 11.3.6"/>
      <path d="M84.1 107c.6.6 2 2.6 1.4 2.6-1-.6-1.3-1.6-1.4-2.6zm2.2 1.8c1 .2 2.2 2.2.6 1.1-.3-.3-.5-.7-.6-1.1zm19.1-10.4c4.2 1.6 8.4 2.2 12.8 3.2v.5c-4.5-1.2-8.8-1.8-12.8-3.7zm-1.8 2.6c5.9 2 11.5 2.5 16.9 3l-.2.6a52 52 0 01-16.7-3.6zm-1.7 2.6c7.6 2 14 2.8 21.2 2.6v.5c-7.4 0-15-.8-21.2-3.1zm-12.5 6.7c-1.1.3-1.3-2-.3-.7 0 .1.6.7.3.7zM82.2 98c1.5.4 1.9 3.3 2 4.5l-.5.2c-.2-1.4-.1-3.7-1.5-4.7zm2.8.6c.8.3 2.7-.3 2.9.5-1 .4-2.3.3-2.9-.5z" transform="translate(2 2)"/>
      <path fill="none" stroke="#000" d="M95 99.7s3.5 0 3.6-2m5.7 2.9c-.2 2.3-3.6 2.3-3.6 2.3s0 1.7-3.5 2.2"/>
      <path d="M96.6 95.4c.9-.2 2-.2 2.5-1 .4-.7.2.7-.3.7-.6.4-1.4.8-2.1.9l-.1-.6zM89 99.5c.8-.1 1.5-.3 2.2-.6.6-.3 1.4-.6 1.4-1.3.5-.2.9.3.4.6-.8.8-2 1.2-3 1.3h-1zm6.5 3.7c-.4 1.3-1.8 1.8-3 1.8h-2.6c-.5-.1.7-.1.8-.1 1.4 0 2.8-.2 3.8-1.1.2-.4.7-1 1-.6zm9.6-6.7c.1 1-.6 1.7-1.5 2-.3 0-1.3.7-1.3.1s1 0 1.3-.5c.7-.2 1.4-.8 1.5-1.6zm-16 6.2l3.3 1.1c-.9 0-1.8-.1-2.6-.6l-.7-.5zm3.6-2.4l3.4 1.2c.2.3-.8.1-1 0-1-.2-1.8-.5-2.4-1.2zm3.1-2l3.8 1.1c-1.1 0-2.4 0-3.3-.7a4 4 0 01-.5-.4zm3.9-2.4c1 .2 2.1.5 3.1.9-.8.1-1.6-.2-2.3-.5-.3 0-.6-.5-.8-.4z" transform="translate(2 2)"/>
      <path d="M102.2 98.9c-1.4-.5-3-.8-4.2-1.7l1 .4c1 .4 2.2.5 3.3.7l-.1.6zm-7.8.5c1 .8 2.3 1 3.6 1.1.4 0 .9-.1.7.4 0 .4-.7 0-1 0a7 7 0 01-2.9-1c-.1-.2-.4-.3-.4-.5zm-3.2 2.2c1 .6 2.2 1 3.4 1.1.5 0 .7.2.6.7l-1.1-.2-3-1.5.1-.1zm-1.3-4.8c1 .3 2 .5 3.1.6 0 .5-.2.7-.6.4-.9-.3-1.8-.4-2.5-.9zm4-2c1 .3 1.8.5 2.8.6 0 1.3-1.5-.1-2.2-.2l-.6-.4zm-5.2-4.5c.8-.3 1.6-.7 2.4-.6.2.6-.3.5-.7.5l-1.7.1zM84.9 89c.4 0 .6.4.5.8-.2.3-.7 0-.6-.5l.1-.3zm-2.3 0c.2.4 0 1-.6.8-.1-.4.2-.7.6-.8zm-5.4 2.3v1c-.5 0-.5-.6-.3-.8l.3-.2zm3.1.3c.2.4.7.6.8 1.1-.4 0-1 0-1-.6 0-.2 0-.4.2-.5zm-5.2-2c0 .4.2 1-.3 1.2-.3.5-.3.3-.3-.2 0-.4.2-.9.6-1zm5.3-10.3c.5.3.8 1 1 1.5a3 3 0 01-.1 1.8l-.3-1.8-.6-1.5z" transform="translate(2 2)"/>
      <path d="M80.6 79.7c.2.5.2 1 0 1.6l-.4.7-.6.6.2-.8.3-.7.2-.7.3-.7zm-.3-.1c.1.3 0 .6-.2.9 0 .2-.3.4-.5.6l-.6.4c-.2.1-.4.2-.6.5 0-.3.1-.6.3-.8l.5-.6.6-.4.5-.6zm6.1-8.9l.6.1.4.4.2.6c0 .1 0 .4-.2.5l-.3-.4-.2-.3-.2-.4a2 2 0 01-.3-.5zm.1 1.7c.3 0 .5.2.7.5l.4.8v.8l-.4.8-.1-.8-.1-.7a4.7 4.7 0 00-.5-1.4zm1.3 5.7c.2 0 .4.1.5.3l.3.3.2.4v.6l-.4-.3-.2-.3-.3-.4V78zm.7 2.7c.2 0 .4.2.5.3.2.1.3.3.3.5l.2.5v.5a2.4 2.4 0 01-.8-1.2 1 1 0 01-.2-.6zm.5 2.9l.4.5c.2.1.3.4.3.6l.1.6c0 .2 0 .4-.2.6l-.3-.5-.1-.6-.2-.6v-.6zm-.5 2.2c.2.1.3.3.3.4l.2.4v.4c0 .2-.2.3-.3.4l-.2-.4-.1-.3v-.4l.1-.5zM84.9 89l.3.1.2.2v.6H85l-.2-.3v-.5zm-2.3 0c0 .1.1.3 0 .4v.2l-.2.2H82v-.5l.3-.2.3-.1zm-3-1.7c.2.1.1.3 0 .5l-.2.3-.4.1-.3.1V88l.3-.3c.2 0 .2-.1.3-.2l.3-.1zm-2.4 4l.1.3v.4l-.1.3a.5.5 0 01-.4-.2v-.6l.4-.2zm3.1.3l.2.3.2.2.2.2.2.4h-.5a.7.7 0 01-.4-.2.7.7 0 01-.1-.5c0-.2 0-.3.2-.4zm-5.2-2v.9l-.3.3-.3.4v-.9l.2-.4c.1-.2.3-.3.4-.3zm8.3-14.8l.4.1.3.1c.1 0 .2 0 .3.2l.4.2-.5.2H84l-.4-.3-.1-.5zm-1.9-4.9c.3 0 .6.2.8.4l.8.4-.9-.1-.8-.1.1-.6zm-2.5.6a2 2 0 01-1 0 .7.7 0 01-.4-.4.8.8 0 01-.2-.4l.3.3.4.1c.3 0 .5 0 .8-.2l.1.6zm1.6.6c0 .5.2.9-.2.9-.5 0-.9-.4-.9-.9s.3-.8.7-.8c.5 0 .4.4.4.8zm-7.2.4c-.1-.3 0-.6.1-.9l.8-.4c.3 0 .6 0 .8.3.3.1.5.4.3.7a.9.9 0 00-.5-.3h-1.1a1 1 0 00-.4.6z" transform="translate(2 2)"/>
      <path d="M74 71.6l.1-.4.3-.1h.3l.3.3c-.2 0-.3.1-.3.2zm3.6-2.4c.1-.4.5-.6.8-.7.4-.2.8-.2 1.2-.1l1 .2 1 .4h-1l-1-.1h-1c-.4 0-.7 0-1 .3zm-.4-5.5c.5.1 1 .4 1.3.8-.4-.2-1-.2-1.4-.2v-.6zM74.1 66c.5 0 1 .3 1.2.5h-1.2zm7.9-2.8c.4.3.5.8.4 1.2-.1-.4-.4-.6-.7-.8l.4-.4zm4.5 1.2a8 8 0 00-.6 1.3v-1.5zm-13.9 39.1l.8 1 .7 1 .7.8.8 1c-.4-.1-.8-.4-1-.6a5.3 5.3 0 01-1.6-2zm2.1.2l.5.5.4.5.3.4.4.6-.6-.2-.6-.4a2 2 0 01-.3-.6zm.5-3.2l.7 1.3.8 1.2 1 1.1 1 1c-.4 0-.9-.3-1.3-.6a5.6 5.6 0 01-1.9-2.5zm3 1.5l.4.2.2.3.2.2.1.5-.4-.1-.3-.3-.2-.3zm1.4-.3l.4.3h.9l.6.3-.5.2-.6.1c-.2 0-.4 0-.6-.2-.2-.2-.3-.4-.2-.7zm24.8 9.5c-.5 0-.8-.5-1.2-.8l-.9-.9c.5 0 1 .2 1.4.6.3.3.7.6.7 1.1zm-11 .2a6 6 0 01-.9-2c0-.6-.1-1.3.2-1.8-.2.4-.2.9 0 1.4 0 .8.6 1.4 1.1 2zm12.1.1c-.1-.7-.7-1.2-.8-2l1 1.3c.3.2.4.8-.1.7zm-9.9.5c-.5-.1-.7-1.3-.2-1.3.4.3.3.9.2 1.3zm-.7-2c-.6-.5-.2-1.6.5-1.6.4 0-.3.8-.3 1zm6.6 6.6c-.4-.9-1-1.7-1-2.8 0-.4.4-1.2.4-.4 0 .8.5 1.4.6 2.1 0 .4.2.8 0 1.1zm-.6 1.2c-.6.2-1.4 0-1.6-.6.4-.4 1 .3 1.5.5zm3.4-1.8c0-.6-.3-1.3.2-1.9.1-.3.5-.9.4-.2.1.8-.3 1.4-.6 2zm-5.9 15.5c-.5.3-.8.61-1.1 1.01l-.36-.46zm5.28.53c0-.4-.11-.68.29-.98l.25.3c-.16.22-.3.25-.54.68zM92 131.8c-.1-.4-.4-1 .3-.7 0 .2-.1.6-.3.7zm3.9-1.6H98c-.7.6-1.6.6-2.1.6zm-2-2.8c0 .4-.5 1-.7.8.2-.2 0-.9.5-.8zm7.5 2.73l-.6-.73.9.3zm.7-4.73c.4.2.9.6.5 1-.2.12-.48-.75-.5-1z" transform="translate(2 2)"/>
    </g>
  </g><pattern id="pappellony-vert-purpure" width="25" height="25" viewBox="0 0 100 100" patternUnits="userSpaceOnUse"><rect width="100" height="100" fill="#004000"/><circle cx="0" cy="51" r="45" stroke="#00c400" fill="#004000" stroke-width="10"/><circle cx="100" cy="51" r="45" stroke="#00c400" fill="#004000" stroke-width="10"/><circle cx="50" cy="1" r="45" stroke="#00c400" fill="#004000" stroke-width="10"/></pattern><style xmlns="http://www.w3.org/1999/xhtml" type="text/css"></style></defs>  <g clip-path="url(#shield_5360743)"><rect class="field" x="0" y="0" width="200" height="200" fill="url(#pappellony-vert-purpure)"/><g class="charge" i="0" charge="arrowsSheaf" fill="#cc7f19" stroke="#000" style="--secondary: #b63a3a; --tertiary: #ffe066;"><use xlink:href="#arrowsSheaf" xmlns:xlink="http://www.w3.org/1999/xlink" transform="translate(-50 -50) scale(1.5)"/></g><g class="charge" i="1" charge="scale" fill="#fafafa" stroke="#000" style="--secondary: #ffe066; --tertiary: #fafafa;"><use xlink:href="#scale" xmlns:xlink="http://www.w3.org/1999/xlink" transform="translate(6.25 50) scale(0.5)"/></g><g class="charge" i="2" charge="cock" fill="#fafafa" stroke="#000" style="--secondary: #85185b; --tertiary: #ffe066;"><use xlink:href="#cock" xmlns:xlink="http://www.w3.org/1999/xlink" transform="translate(193.75 50) scale(-0.5 0.5)"/></g></g> <path class="grad" d="m 100,25 c 18,0 50,2 75,14 v 37 l -2.7,3.2 c -4.9,5.4 -6.6,9.6 -6.7,16.2 0,6.5 2,11.6 6.9,17.2 l 2.8,3.1 v 10.2 c 0,17.7 -2.2,27.7 -7.8,35.9 -5,7.3 -11.7,11.3 -32.3,19.4 -12.6,5 -20.2,8.8 -28.6,14.5 C 103.3,198 100,200 100,200 c 0,0 -2.8,-2.3 -6.4,-4.7 C 85.6,189.8 78,186 65,180.9 32.4,168.1 26.9,160.9 25.8,129.3 L 25,116 l 3.3,-3.3 c 4.8,-5.2 7,-10.7 7,-17.3 0,-6.8 -1.8,-11.1 -6.5,-16.1 L 25,76 V 39 C 50,27 82,25 100,25 Z" fill="url(#luster)" stroke="#333333" stroke-width="1" style="pointer-events: none;"/>  </svg>